<?xml version="1.0" encoding="UTF-8"?><svg id="_лой_2" xmlns="http://www.w3.org/2000/svg" viewBox="0 0 46.06 43.89"><defs><style>.cls-1{fill:#fff;}</style></defs><g id="OBJECTS"><g><path class="cls-1" d="M33.11,43.89h-1.44V16.54c0-.4,.32-.72,.72-.72h.69l-3.57-4.59-3.57,4.59h.69c.4,0,.72,.32,.72,.72v27.35h-1.44V17.26h-1.44c-.4,0-.72-.32-.72-.72,0-.16,.05-.32,.15-.44l5.04-6.48c.27-.31,.74-.35,1.05-.09,.03,.03,.06,.05,.09,.09l5.04,6.48c.24,.31,.19,.77-.13,1.01-.13,.1-.28,.15-.44,.15h-1.44v26.63Zm-12.96-15.83h-1.44v-5.04c0-.4,.32-.72,.72-.72h.69l-3.57-4.59-3.57,4.59h.69c.4,0,.72,.32,.72,.72v1.44h-1.44v-.72h-1.44c-.4,0-.72-.32-.72-.72,0-.16,.05-.32,.15-.44l5.04-6.48c.27-.31,.74-.35,1.05-.09,.03,.03,.06,.05,.09,.09l5.04,6.48c.24,.31,.19,.77-.13,1.01-.13,.1-.28,.15-.44,.15h-1.44v4.32Z"/><path class="cls-1" d="M43.9,43.89h-1.44V7.18c0-.4,.32-.72,.72-.72h.69l-3.57-4.59-3.57,4.59h.69c.4,0,.72,.32,.72,.72V43.89h-1.44V7.9h-1.44c-.4,0-.72-.32-.72-.72,0-.16,.05-.32,.15-.44L39.74,.26c.27-.31,.74-.35,1.05-.09,.03,.03,.06,.05,.09,.09l5.04,6.48c.24,.31,.19,.77-.13,1.01-.13,.1-.28,.15-.44,.15h-1.44V43.89Zm-24.47-6.48h-6.48v-1.44h6.48c1.19,0,2.16-.97,2.16-2.16v-3.6H1.44v3.6c0,1.19,.97,2.16,2.16,2.16h6.48v1.44H3.6c-1.99,0-3.6-1.61-3.6-3.6v-4.32c0-.4,.32-.72,.72-.72H22.31c.4,0,.72,.32,.72,.72v4.32c0,1.99-1.61,3.6-3.6,3.6Z"/><path class="cls-1" d="M21.59,43.89H1.44c-.4,0-.72-.32-.72-.72v-7.2h1.44v6.48H20.87v-6.48h1.44v7.2c0,.4-.32,.72-.72,.72Z"/><path class="cls-1" d="M12.96,39.57h-2.88c-.4,0-.72-.32-.72-.72v-4.32c0-.4,.32-.72,.72-.72h2.88c.4,0,.72,.32,.72,.72v4.32c0,.4-.32,.72-.72,.72Zm-2.16-1.44h1.44v-2.88h-1.44v2.88Zm5.76-7.92H6.48c-.4,0-.72-.32-.72-.72v-2.16c0-1.19,.97-2.16,2.16-2.16h7.2c1.19,0,2.16,.97,2.16,2.16v2.16c0,.4-.32,.72-.72,.72Zm-9.36-1.44H15.83v-1.44c0-.4-.32-.72-.72-.72H7.92c-.4,0-.72,.32-.72,.72v1.44Z"/></g></g></svg>