<?xml version="1.0" encoding="UTF-8"?><svg id="_лой_2" xmlns="http://www.w3.org/2000/svg" viewBox="0 0 17.04 17.04"><defs><style>.cls-1{fill:#fff;}</style></defs><g id="OBJECTS"><path class="cls-1" d="M7.95,2.27h2.27c.31,0,.57-.25,.57-.57s-.25-.57-.57-.57h-1.14V.57c0-.31-.25-.57-.57-.57s-.57,.25-.57,.57v.57c-.94,0-1.7,.76-1.7,1.7s.76,1.7,1.7,1.7h1.14c.31,0,.57,.25,.57,.57s-.25,.57-.57,.57h-2.27c-.31,0-.57,.25-.57,.57s.25,.57,.57,.57h1.14v.57c0,.31,.25,.57,.57,.57s.57-.25,.57-.57v-.57c.94,0,1.7-.76,1.7-1.7s-.76-1.7-1.7-1.7h-1.14c-.31,0-.57-.25-.57-.57s.25-.57,.57-.57Zm-.57,6.82c-.63,0-1.14,.51-1.14,1.14v5.68c0,.63,.51,1.14,1.14,1.14h2.27c.63,0,1.14-.51,1.14-1.14v-5.68c0-.63-.51-1.14-1.14-1.14h-2.27Zm0,6.82v-5.68h2.27v5.68h-2.27Zm-6.25,1.14H3.41c.63,0,1.14-.51,1.14-1.14v-3.98c0-.63-.51-1.14-1.14-1.14H1.14c-.63,0-1.14,.51-1.14,1.14v3.98c0,.63,.51,1.14,1.14,1.14Zm0-5.11H3.41v3.98H1.14v-3.98Zm14.77,0h-2.27c-.63,0-1.14,.51-1.14,1.14v2.84c0,.63,.51,1.14,1.14,1.14h2.27c.63,0,1.14-.51,1.14-1.14v-2.84c0-.63-.51-1.14-1.14-1.14Zm-2.27,3.98v-2.84h2.27v2.84h-2.27Z"/></g></svg>