<?xml version="1.0" encoding="UTF-8"?><svg id="_лой_2" xmlns="http://www.w3.org/2000/svg" viewBox="0 0 25.49 29.54"><defs><style>.cls-1{fill:#fff;}</style></defs><g id="OBJECTS"><path class="cls-1" d="M24.62,6.92c0,.24,.19,.43,.43,.43s.43-.19,.43-.43c0-3.81-3.11-6.92-6.93-6.92-2.16,0-4.1,.99-5.37,2.55-.56-.58-1.39-.85-2.22-.69-.64,.13-1.18,.49-1.54,1.03-.36,.54-.49,1.18-.36,1.82,.05,.23,.12,.45,.23,.65-3.4,.97-5.8,4.1-5.8,7.68,0,.24,.19,.43,.43,.43s.43-.19,.43-.43c0-3.39,2.42-6.33,5.74-6.99h0c.46-.09,.92-.14,1.39-.14,.07,0,.13,0,.2,0-.05,.33-.07,.66-.07,.99,0,3.81,3.11,6.92,6.93,6.92,.03,0,.05,0,.08,0v2.09c0,1.69,.75,3.28,2.04,4.36l.52,.43c.52,.44,.82,1.08,.82,1.76v.03c0,1.25-1.02,2.26-2.26,2.26H3.13c-1.25,0-2.26-1.01-2.26-2.26,0-.34,.08-.68,.22-.99,.15-.31,.36-.58,.63-.79l.53-.43c1.35-1.08,2.12-2.69,2.12-4.42v-.95c0-.24-.19-.43-.43-.43s-.43,.19-.43,.43v.95c0,1.46-.65,2.83-1.79,3.75l-.53,.43c-.37,.3-.66,.67-.87,1.09-.2,.42-.31,.89-.31,1.36,0,1.72,1.4,3.12,3.13,3.12H7.66s0,.09,0,.13c0,2.09,1.7,3.79,3.79,3.79s3.79-1.7,3.79-3.79c0-.04,0-.09,0-.13h4.53c1.72,0,3.13-1.4,3.13-3.12v-.03c0-.94-.41-1.82-1.14-2.42l-.52-.43c-1.1-.92-1.73-2.26-1.73-3.7v-2.16c1.18-.16,2.28-.61,3.24-1.34,1.17-.89,2.05-2.16,2.46-3.56,.06-.23-.07-.47-.3-.53-.23-.06-.46,.07-.53,.29-.36,1.23-1.13,2.34-2.15,3.12-1.06,.81-2.33,1.23-3.67,1.23-3.34,0-6.06-2.71-6.06-6.05,0-3.34,2.72-6.05,6.06-6.05s6.06,2.71,6.06,6.05h0ZM14.37,25.76c0,1.61-1.31,2.92-2.93,2.92s-2.93-1.31-2.93-2.92c0-.04,0-.09,0-.13h5.85s0,.09,0,.13h0ZM11.5,5.06c-.44,0-.88,.04-1.31,.11-.14-.18-.23-.4-.28-.62-.08-.41,0-.82,.23-1.17,.23-.35,.58-.58,.99-.66,.59-.12,1.17,.11,1.53,.56-.34,.55-.61,1.15-.79,1.79-.13,0-.25,0-.38,0h0Z"/></g></svg>