<?xml version="1.0" encoding="UTF-8"?><svg id="_лой_2" xmlns="http://www.w3.org/2000/svg" xmlns:xlink="http://www.w3.org/1999/xlink" viewBox="0 0 31.12 32.93"><defs><style>.cls-1{fill:url(#linear-gradient-2);}.cls-2{fill:#fff;}.cls-3{opacity:.5;}.cls-4,.cls-5{fill:#8f4e12;}.cls-5{opacity:.7;}.cls-6{fill:#f1f1f1;}.cls-7{fill:url(#linear-gradient);}.cls-8{fill:#372509;}.cls-9{fill:#995e16;}</style><linearGradient id="linear-gradient" x1="15.72" y1="30.84" x2="15.72" y2="1.57" gradientTransform="matrix(1, 0, 0, 1, 0, 0)" gradientUnits="userSpaceOnUse"><stop offset="0" stop-color="#a96d19"/><stop offset=".15" stop-color="#b17a24"/><stop offset=".44" stop-color="#c79f41"/><stop offset=".84" stop-color="#ebd96f"/><stop offset="1" stop-color="#fbf485"/></linearGradient><linearGradient id="linear-gradient-2" x1="15.72" y1="28.2" x2="15.72" y2="4.21" gradientTransform="matrix(1, 0, 0, 1, 0, 0)" gradientUnits="userSpaceOnUse"><stop offset="0" stop-color="#945a15"/><stop offset=".16" stop-color="#9d671c"/><stop offset=".46" stop-color="#b78c30"/><stop offset=".82" stop-color="#dcbf4c"/></linearGradient></defs><g id="OBJECTS"><g><g id="chip"><path class="cls-8" d="M15.72,1.57c8.08,0,14.64,6.55,14.64,14.64,0,.22-.02,.44-.03,.66,0,.22,.03,.44,.03,.66,0,8.08-6.55,14.64-14.64,14.64S1.08,25.6,1.08,17.52c0-.22,.02-.44,.03-.66,0-.22-.03-.44-.03-.66C1.08,8.12,7.63,1.57,15.72,1.57m0-.77C7.22,.79,.31,7.71,.31,16.2c0,.17,.01,.32,.02,.47,0,.06,0,.13,.01,.19,0,.06,0,.13-.01,.19-.01,.15-.02,.3-.02,.47,0,8.5,6.91,15.41,15.41,15.41s15.41-6.91,15.41-15.41c0-.17-.01-.32-.02-.47,0-.06,0-.13-.01-.19,0-.06,0-.13,.01-.19,.01-.15,.02-.3,.02-.47C31.12,7.71,24.21,.79,15.72,.79h0Z"/><circle class="cls-9" cx="15.72" cy="17.52" r="14.64"/><circle class="cls-7" cx="15.72" cy="16.2" r="14.64"/><g class="cls-3"><path class="cls-6" d="M15.72,2.02c8.01,0,14.51,6.43,14.63,14.41,0-.08,0-.15,0-.23,0-8.08-6.55-14.64-14.64-14.64S1.08,8.12,1.08,16.2c0,.08,0,.15,0,.23,.12-7.98,6.62-14.41,14.63-14.41Z"/></g><circle class="cls-1" cx="15.72" cy="16.2" r="11.99"/><path class="cls-5" d="M15.72,4.64c6.38,0,11.57,5.19,11.57,11.57s-5.19,11.57-11.57,11.57-11.57-5.19-11.57-11.57S9.34,4.64,15.72,4.64m0-.43c-6.62,0-11.99,5.37-11.99,11.99s5.37,11.99,11.99,11.99,11.99-5.37,11.99-11.99S22.34,4.21,15.72,4.21h0Z"/><path class="cls-4" d="M15.72,4.21c-6.62,0-11.99,5.37-11.99,11.99,0,.17,.02,.34,.03,.51,.27-6.39,5.52-11.48,11.97-11.48s11.7,5.1,11.97,11.48c0-.17,.03-.34,.03-.51,0-6.62-5.37-11.99-11.99-11.99h0Z"/><path class="cls-2" d="M3.99,2.48h0c.92,1.68,2.31,3.07,3.99,3.99h0c-1.68,.92-3.07,2.31-3.99,3.99h0c-.92-1.68-2.31-3.07-3.99-3.99H0c1.68-.92,3.07-2.31,3.99-3.99h0Z"/><path class="cls-2" d="M10.27,0h0c.41,.75,1.03,1.37,1.78,1.78h0c-.75,.41-1.37,1.03-1.78,1.78h0c-.41-.75-1.03-1.37-1.78-1.78h0c.75-.41,1.37-1.03,1.78-1.78h0Z"/></g><g><path class="cls-4" d="M19.03,10.78c.68-.31,1.34-.2,1.98,.15,.29,.15,.51,.39,.75,.61,.38,.35,.78,.64,1.33,.64,.16,0,.25,.16,.16,.3-.26,.45-.23,.92-.12,1.39,.14,.56,.23,1.11,.07,1.68-.08,.3-.21,.57-.41,.8-.08,.09-.08,.15,0,.25,.46,.57,.57,1.22,.46,1.92-.05,.32-.17,.64-.19,.97-.02,.33,0,.66,.18,.96,.1,.17,.02,.32-.17,.32-.5,0-.88,.25-1.23,.57-.33,.31-.66,.63-1.09,.81-.56,.23-1.11,.28-1.67,.03-.02,0-.04,0-.07,0-.02,.22-.02,.45-.09,.66-.23,.7-.73,1.13-1.38,1.4-.21,.09-.44,.14-.66,.21-.45,.15-.87,.35-1.11,.8-.08,.15-.26,.15-.34,0-.27-.49-.73-.69-1.23-.83-.41-.12-.81-.25-1.15-.52-.57-.45-.89-1.02-.84-1.79-.18,.11-.37,.16-.57,.2-.7,.13-1.32-.09-1.87-.51-.17-.13-.31-.28-.47-.42-.36-.33-.76-.6-1.28-.6-.16,0-.25-.15-.18-.28,.3-.51,.23-1.04,.09-1.57-.12-.47-.17-.95-.06-1.43,.08-.33,.21-.63,.43-.88,.08-.09,.09-.15,0-.25-.47-.57-.57-1.23-.46-1.94,.06-.37,.2-.72,.2-1.09,0-.29-.04-.56-.18-.81-.1-.17-.02-.32,.17-.32,.51,0,.9-.25,1.24-.58,.42-.41,.86-.78,1.45-.92,.47-.11,.92-.11,1.34,.14,.04,.02,.07,.04,.12,.03-.07-1.23,.86-2.01,1.83-2.27,.28-.08,.56-.16,.82-.31,.23-.14,.43-.3,.57-.54,.1-.17,.27-.19,.36-.02,.25,.45,.66,.65,1.12,.79,.54,.16,1.06,.34,1.48,.75,.39,.39,.62,.84,.63,1.39,0,.05-.02,.1,.03,.15Zm-3.52,.55c-2.79-.02-5.25,2.28-5.07,5.37,.17,2.79,2.52,4.93,5.33,4.78,2.63-.14,4.97-2.39,4.81-5.33-.15-2.71-2.4-4.82-5.07-4.82Zm-2.5,9.96c-.05,.07-.1,.14-.14,.21-.4,.59-.35,1.28,.13,1.8,.31,.33,.68,.55,1.12,.67,.55,.15,1.1,.32,1.48,.81,.34-.46,.83-.63,1.33-.77,.48-.13,.92-.33,1.26-.71,.38-.43,.53-.92,.31-1.47-.08-.2-.23-.38-.35-.58-1.7,.87-3.42,.86-5.15,.04Zm-.05-9.76c1.76-.84,3.5-.83,5.24,.05,.03-.05,.06-.1,.1-.15,.54-.63,.29-1.5-.25-1.96-.29-.25-.62-.42-.99-.52-.55-.15-1.09-.31-1.46-.81-.22,.3-.51,.48-.83,.6-.21,.08-.43,.16-.66,.21-.48,.13-.89,.38-1.19,.77-.45,.57-.43,1.24,.05,1.81Zm5.58,9.48c.18,.34,.36,.65,.74,.79,.7,.26,1.32,.06,1.86-.38,.5-.42,.92-.95,1.64-1.05-.22-.54-.11-1.05,0-1.55,.03-.14,.07-.27,.09-.41,.07-.54,0-1.05-.33-1.5-.11-.15-.25-.23-.43-.21-.29,.02-.58,.07-.87,.09-.2,.01-.27,.12-.29,.31-.11,.96-.46,1.82-1.03,2.6-.38,.52-.84,.96-1.39,1.32Zm4.24-8.48c-.35-.04-.64-.19-.9-.39-.19-.15-.38-.31-.55-.49-.32-.33-.7-.53-1.14-.63-.69-.16-1.38,.19-1.59,.8,.75,.52,1.36,1.18,1.78,2,.43,.81,.63,1.68,.63,2.61,.23-.04,.43-.03,.64-.05,.65-.06,.99-.28,1.18-.98,.1-.36,.1-.72,0-1.08-.14-.58-.31-1.17-.06-1.79Zm-10.23,8.48c-.72-.48-1.3-1.07-1.74-1.8-.44-.74-.7-1.53-.77-2.41-.32-.04-.64-.06-.94-.11-.24-.04-.43,.02-.56,.22-.31,.46-.39,.97-.3,1.5,.04,.21,.1,.42,.14,.63,.09,.43,.13,.87-.05,1.31,.39,.05,.69,.21,.95,.44,.17,.14,.34,.29,.5,.45,.31,.3,.66,.51,1.08,.61,.69,.16,1.35-.06,1.69-.85Zm-2.54-4.6c.05-.47,.08-.93,.2-1.37,.34-1.28,1.05-2.3,2.1-3.1,.06-.04,.16-.07,.11-.17-.14-.28-.26-.56-.6-.68-.7-.24-1.3-.06-1.84,.38-.51,.42-.93,.96-1.66,1.07,.15,.36,.16,.7,.1,1.04-.06,.3-.12,.59-.18,.88-.09,.43-.03,.85,.14,1.25,.16,.36,.43,.58,.84,.64,.26,.04,.52,.02,.79,.06Z"/><path class="cls-4" d="M15.55,20.85c-2.45,0-4.43-1.95-4.4-4.37,.03-2.45,1.93-4.4,4.31-4.41,2.8-.01,4.51,2.06,4.5,4.31-.02,2.66-2.13,4.5-4.41,4.46Zm-1.73-7.98c-1.13,.41-2.31,1.86-2.28,3.62,.03,1.85,1.36,3.69,3.5,3.97,1.9,.25,3.78-.86,4.39-2.83,.54-1.77-.42-3.66-1.5-4.34,1.29,1.8,.45,3.52-.61,4.25-1.19,.83-2.84,.65-3.84-.42-.87-.93-1.24-2.91,.34-4.24Zm4.32,2.28c.02-1.41-1.19-2.51-2.36-2.51-1.68,.01-2.57,1.3-2.56,2.52,.01,1.37,1.1,2.48,2.46,2.48,1.36,0,2.46-1.11,2.46-2.5Z"/></g></g></g></svg>