<?xml version="1.0" encoding="UTF-8"?><svg id="_лой_2" xmlns="http://www.w3.org/2000/svg" viewBox="0 0 43.17 43.17"><defs><style>.cls-1{fill:#fff;}</style></defs><g id="OBJECTS"><g><path class="cls-1" d="M43.17,21.58C43.17,9.68,33.48,0,21.58,0c-3.73,0-7.37,.97-10.59,2.79h-2.64V0H4.18V8.83C1.45,12.55,0,16.95,0,21.58c0,11.9,9.68,21.58,21.58,21.58,2.65,0,5.24-.48,7.69-1.41,1.4,.89,3.06,1.41,4.84,1.41,2.17,0,4.27-.78,5.91-2.2l-.91-1.05c-1.39,1.2-3.17,1.86-5,1.86-4.22,0-7.66-3.44-7.66-7.66s3.44-7.66,7.66-7.66,7.66,3.44,7.66,7.66c0,1.76-.58,3.42-1.69,4.8l1.09,.87c1.29-1.6,2-3.61,2-5.67,0-1.78-.52-3.44-1.42-4.84,.94-2.45,1.42-5.04,1.42-7.69ZM11.14,6.96h1.39v9.75h-1.39V6.96Zm-2.79-2.79h1.39v12.53h-1.39V4.18ZM5.57,1.39h1.39v15.32h-1.39V1.39Zm15.32,40.37c-10.58-.36-19.12-8.9-19.48-19.48H20.89v19.48Zm0-20.87H1.42c.11-3.39,1.05-6.63,2.76-9.52v6.73h15.32v-6.96h-2.79v-2.79h-2.79v-2.79h-2.79v-1.26c2.95-1.79,6.29-2.78,9.75-2.89V20.89h0Zm-6.96-4.18v-6.96h1.39v6.96h-1.39Zm2.79,0v-4.18h1.39v4.18h-1.39Zm25.05,4.18h-5.96l5.12-5.12c.49,1.63,.78,3.35,.84,5.12Zm-3.51-10.69l-7.78,7.78,.98,.98,7.55-7.55c.54,.93,1.01,1.9,1.4,2.9l-6.58,6.58h-4.3l.9-.9-.98-.98-1.88,1.88h-4.3l13.07-13.07c.69,.74,1.34,1.54,1.91,2.38h0ZM22.28,1.41c1.77,.06,3.49,.35,5.12,.84l-5.12,5.12V1.41Zm0,14.2L30.74,7.14l-.98-.98-7.48,7.48v-4.3l6.58-6.58c1,.39,1.97,.86,2.9,1.4l-1.12,1.12,.98,.98,1.34-1.34c.84,.58,1.64,1.22,2.38,1.91l-13.07,13.07v-4.3h0Zm11.84,9.46c-4.99,0-9.05,4.06-9.05,9.05,0,2.62,1.12,4.97,2.91,6.63-1.83,.61-3.74,.95-5.69,1.02V22.28h19.48c-.07,1.95-.41,3.86-1.02,5.69-1.65-1.78-4.01-2.91-6.63-2.91Z"/><path class="cls-1" d="M8.56,33.62l8.36-8.36,.98,.98-8.36,8.36-.98-.98Zm7.45-2.99c-1.15,0-2.09,.94-2.09,2.09s.94,2.09,2.09,2.09,2.09-.94,2.09-2.09-.94-2.09-2.09-2.09Zm0,2.79c-.38,0-.7-.31-.7-.7s.31-.7,.7-.7,.7,.31,.7,.7-.31,.7-.7,.7Zm-5.57-8.36c-1.15,0-2.09,.94-2.09,2.09s.94,2.09,2.09,2.09,2.09-.94,2.09-2.09-.94-2.09-2.09-2.09Zm0,2.79c-.38,0-.7-.31-.7-.7s.31-.7,.7-.7,.7,.31,.7,.7-.31,.7-.7,.7Zm23.67,5.57c-.77,0-1.39-.62-1.39-1.39s.62-1.39,1.39-1.39,1.39,.62,1.39,1.39h1.39c0-1.29-.89-2.37-2.09-2.69v-1.49h-1.39v1.49c-1.2,.31-2.09,1.39-2.09,2.69,0,1.54,1.25,2.79,2.79,2.79,.77,0,1.39,.62,1.39,1.39s-.62,1.39-1.39,1.39-1.39-.62-1.39-1.39h-1.39c0,1.29,.89,2.37,2.09,2.69v1.49h1.39v-1.49c1.2-.31,2.09-1.39,2.09-2.69,0-1.54-1.25-2.79-2.79-2.79Zm4.87,0h1.39v1.39h-1.39v-1.39Zm-11.14,0h1.39v1.39h-1.39v-1.39Z"/></g></g></svg>