<?xml version="1.0" encoding="UTF-8"?><svg id="_лой_2" xmlns="http://www.w3.org/2000/svg" viewBox="0 0 44.24 44.24"><defs><style>.cls-1,.cls-2{fill:#fff;}.cls-2{fill-rule:evenodd;}</style></defs><g id="OBJECTS"><g><path class="cls-2" d="M25.89,23.54c-.7,1.64-2.11,2.59-3.77,2.59-1.18,0-2.11-.48-2.82-1.19-.24-.23-.47-.47-.47-.47-.48-.7-.72-1.65-.72-2.35,0-2.36,1.66-4.01,4.01-4.01,1.18,0,2.37,.47,3.07,1.18,.7,.7,.94,1.65,.94,2.83,0,.47,0,.94-.24,1.42h0Z"/><path class="cls-1" d="M23.77,44.24h-3.54c-1.78,0-3.35-1.36-3.73-3.23l-.76-3.29s-.07-.03-.1-.04c-.06-.02-.13-.05-.19-.08l-2.67,1.91c-.06,.04-.19,.11-.26,.15-.53,.26-1.19,.58-1.96,.58-1.22,0-2.25-.5-2.93-1.41l-2.48-2.25c-1.33-1.74-1.43-3.78-.41-5.15l1.81-2.53c-.08-.14-.15-.29-.21-.44l-3.16-.75c-1.89-.36-3.19-1.95-3.19-3.94v-3.54c0-1.78,1.36-3.34,3.24-3.71l3.09-.73c.06-.17,.12-.33,.21-.49l-1.8-2.52c-.99-1.65-.88-3.42,.25-4.93l2.71-2.74c.72-.71,1.76-1.11,2.87-1.11,.8,0,1.49,.34,2.03,.62l2.81,1.79c.06-.02,.13-.05,.2-.08,.05-.02,.1-.04,.15-.06l.77-3.11c.31-1.89,1.78-3.18,3.71-3.18h3.54c2.13,0,3.61,1.23,3.95,3.28l.76,3.04c.1,.04,.2,.09,.31,.13l2.71-1.74c.68-.35,1.36-.69,2.16-.69,1.12,0,2.17,.41,2.86,1.12l2.59,2.59c1.26,1.67,1.37,3.43,.44,4.99l-1.9,2.67c.06,.14,.1,.28,.13,.41l3.24,.76c1.86,.38,3.21,1.94,3.21,3.7v3.54c0,1.98-1.3,3.57-3.24,3.95l-3.18,.56c-.05,.17-.11,.36-.18,.55l1.87,2.61c1,1.34,.91,3.38-.25,4.93l-2.66,2.44c-.67,.91-1.7,1.41-2.92,1.41-.78,0-1.44-.33-1.98-.59-.07-.03-.18-.09-.25-.14l-2.69-1.93c-.09,.04-.17,.08-.26,.11l-.79,3.36c-.38,1.89-1.96,3.18-3.93,3.18Zm-8.48-9.6c.21,0,.43,.05,.63,.15,.22,.11,.49,.22,.76,.32,.31,.12,.62,.25,.87,.37,.38,.18,.65,.53,.74,.93l.93,4.01c.11,.54,.49,1.05,1.02,1.05h3.54c.93,0,1.17-.7,1.23-1.01l.95-4.05c.09-.41,.37-.75,.75-.93,.64-.3,1.12-.54,1.83-.77,.41-.15,.88-.07,1.24,.19l3.29,2.36c.08,.02,.47,.21,.61,.21,.51,0,.65-.22,.72-.32,.06-.1,.14-.19,.23-.27l2.6-2.35c.22-.33,.32-1.09,.05-1.45l-2.37-3.32c-.33-.46-.35-1.09-.03-1.56,.2-.3,.25-.5,.35-.87,.06-.22,.12-.45,.21-.7,.16-.47,.57-.82,1.07-.91l4.01-.71c.21-.04,.98-.27,.98-1.23v-3.54c0-.52-.52-.9-1.01-1-.02,0-.03,0-.05-.01l-4.01-.94c-.39-.09-.73-.35-.91-.71-.16-.3-.24-.6-.31-.86-.04-.16-.11-.39-.16-.45-.47-.48-.53-1.23-.14-1.77l2.36-3.3c.16-.28,.38-.86-.22-1.67l-2.47-2.44c-.18-.19-.53-.3-.9-.3-.15,0-.55,.2-.8,.32l-3.16,2.04c-.35,.23-.79,.29-1.18,.15-.78-.26-1.28-.5-1.8-.76-.36-.18-.67-.53-.77-.93l-.94-3.77c-.12-.7-.36-1.08-1.25-1.08h-3.54c-.36,0-.86,.1-1.01,.97l-.95,3.87c-.1,.39-.36,.72-.72,.9-.26,.14-.59,.27-.92,.4-.26,.1-.52,.2-.72,.3-.43,.23-.96,.2-1.37-.07l-3.31-2.12c-.13-.06-.52-.25-.67-.25-.38,0-.72,.12-.92,.3l-2.58,2.59c-.48,.66-.25,1.24-.03,1.61l2.29,3.21c.39,.55,.33,1.3-.15,1.78-.2,.2-.3,.55-.3,.68,0,.64-.44,1.2-1.07,1.34l-4,.94c-.55,.11-1.06,.49-1.06,1.01v3.54c0,.97,.77,1.19,1,1.23l4.05,.96c.63,.15,1.07,.7,1.07,1.34,0,.05,.05,.23,.48,.89,.32,.48,.31,1.1-.03,1.56l-2.35,3.3c-.29,.39-.18,1.14,.22,1.67l2.41,2.16c.08,.08,.15,.16,.22,.25,.12,.17,.29,.33,.74,.33,.13,0,.5-.18,.75-.3l3.17-2.28c.24-.17,.52-.26,.8-.26Zm6.82-2.18c-3.32,0-6.38-1.49-8.39-4.07-.16-.14-.3-.42-.39-.58-.1-.1-.17-.23-.23-.35-.73-1.44-1.56-3.35-1.56-5.33,0-5.73,4.84-10.57,10.57-10.57,2.95,0,5.75,1.34,7.88,3.77,1.66,1.94,2.46,4.16,2.46,6.81v.47s0,.05,0,.07c-.28,5.59-4.73,9.8-10.34,9.8Zm-6.61-6.4c.15,.2,.25,.38,.3,.49,1.59,2.04,3.84,3.14,6.31,3.14,4.1,0,7.36-3.07,7.58-7.14v-.43c0-1.99-.56-3.57-1.78-5-.92-1.04-2.91-2.81-5.8-2.81-4.16,0-7.8,3.65-7.8,7.81,0,1.34,.62,2.79,1.19,3.94Zm15.57-3.47h0Z"/></g></g></svg>