<?xml version="1.0" encoding="UTF-8"?><svg id="_лой_2" xmlns="http://www.w3.org/2000/svg" viewBox="0 0 17.62 38.76"><defs><style>.cls-1{fill:#fff;stroke:#c268ff;stroke-miterlimit:10;stroke-width:.5px;}</style></defs><g id="OBJECTS"><path class="cls-1" d="M3.92,.86l12.98,17.04c.3,.39,.46,.92,.46,1.49,0,.56-.16,1.09-.46,1.48L3.94,37.9c-.3,.39-.7,.61-1.13,.61s-.83-.22-1.13-.61l-.95-1.25c-.3-.39-.47-.92-.47-1.48,0-.56,.17-1.09,.47-1.48l10.89-14.3L.72,5.08c-.3-.39-.47-.92-.47-1.48,0-.56,.17-1.09,.47-1.48L1.67,.86c.62-.82,1.63-.82,2.25,0Z"/></g></svg>