<?xml version="1.0" encoding="UTF-8"?><svg id="_лой_2" xmlns="http://www.w3.org/2000/svg" viewBox="0 0 47.47 44.62"><defs><style>.cls-1{fill:#fff;}</style></defs><g id="OBJECTS"><g><path class="cls-1" d="M45.32,19.83v-5.29c0-2.45-1.98-4.44-4.43-4.45,0,0,0,0-.01,0h-2.89L14.35,.26c-1.66-.7-3.58,.08-4.29,1.74-.01,.02-.02,.05-.03,.07l-3.22,8.03h-2.37C1.99,10.1,0,12.08,0,14.53c0,0,0,0,0,.01v25.64c0,2.45,1.98,4.44,4.43,4.45,0,0,0,0,.01,0H40.87c2.45,0,4.44-1.98,4.45-4.43,0,0,0,0,0-.01v-5.29c1.2-.04,2.15-1.02,2.16-2.22v-10.62c0-1.2-.96-2.18-2.16-2.22h0ZM12.04,2.87c.1-.28,.32-.51,.6-.63,.28-.11,.59-.11,.86,0l18.86,7.85h-5.22L14.37,5.85c-.55-.19-1.15,.09-1.36,.63l-1.4,3.63h-2.46l2.89-7.23Zm8.29,7.23h-6.39l.71-1.88,5.68,1.88Zm22.83,30.08c0,1.26-1.02,2.29-2.29,2.29H4.45c-1.26,0-2.29-1.02-2.29-2.29V14.54c0-1.26,1.03-2.28,2.29-2.29H40.87c1.26,0,2.28,1.03,2.29,2.29v5.27h-9.71c-4.17,0-7.55,3.38-7.55,7.55s3.38,7.55,7.55,7.55h9.71v5.27Zm2.16-7.51s-.04,.08-.09,.09h-11.78c-2.98,0-5.39-2.42-5.39-5.39s2.42-5.39,5.39-5.39l11.87,.09v10.62Z"/><path class="cls-1" d="M33.45,24.12c-1.79,0-3.24,1.45-3.24,3.24s1.45,3.24,3.24,3.24,3.24-1.45,3.24-3.24-1.45-3.24-3.24-3.24Zm0,4.32c-.6,0-1.08-.48-1.08-1.08s.48-1.08,1.08-1.08,1.08,.48,1.08,1.08-.48,1.08-1.08,1.08ZM12.95,17.65c0,.6-.48,1.08-1.08,1.08H7.55c-.6,0-1.08-.48-1.08-1.08s.48-1.08,1.08-1.08h4.32c.6,0,1.08,.48,1.08,1.08Zm4.32,4.32c0,.6-.48,1.08-1.08,1.08H7.55c-.6,0-1.08-.48-1.08-1.08s.48-1.08,1.08-1.08h8.63c.6,0,1.08,.48,1.08,1.08Z"/></g></g></svg>