<?xml version="1.0" encoding="UTF-8"?><svg id="_лой_2" xmlns="http://www.w3.org/2000/svg" viewBox="0 0 33.07 29.67"><defs><style>.cls-1,.cls-2{fill:#fff;}.cls-2,.cls-3{fill-rule:evenodd;}.cls-3{fill:#75ac94;}</style></defs><g id="OBJECTS"><g id="chip"><g><path class="cls-3" d="M7.07,2.12L1.27,14.31c-.05,.09-.02,.2,.05,.28l15.67,15.02c.09,.09,.24,.09,.33,0l15.67-15.02c.08-.07,.1-.18,.05-.28L27.25,2.12c-.04-.08-.12-.14-.21-.14H7.29c-.09,0-.18,.05-.22,.14h0Z"/><path class="cls-2" d="M19.17,15.56h0c-.11,0-.69,.04-1.99,.04-1.03,0-1.76-.03-2.02-.04h0c-3.99-.18-6.96-.87-6.96-1.7s2.98-1.52,6.96-1.7v2.71c.26,.02,1.01,.06,2.04,.06,1.24,0,1.86-.05,1.97-.06v-2.71c3.98,.18,6.95,.87,6.95,1.7s-2.97,1.52-6.95,1.7h0Zm0-3.68v-2.43h5.55v-3.7H9.61v3.7h5.55v2.43c-4.51,.21-7.9,1.1-7.9,2.17s3.39,1.96,7.9,2.17v7.77h4.01v-7.78c4.5-.21,7.89-1.1,7.89-2.17s-3.38-1.96-7.89-2.17h0Z"/></g><path class="cls-1" d="M3.99,2.48h0c.92,1.68,2.31,3.07,3.99,3.99h0c-1.68,.92-3.07,2.31-3.99,3.99h0c-.92-1.68-2.31-3.07-3.99-3.99H0c1.68-.92,3.07-2.31,3.99-3.99h0Z"/><path class="cls-1" d="M9.27,0h0c.41,.75,1.03,1.37,1.78,1.78h0c-.75,.41-1.37,1.03-1.78,1.78h0c-.41-.75-1.03-1.37-1.78-1.78h0c.75-.41,1.37-1.03,1.78-1.78h0Z"/></g></g></svg>