<?xml version="1.0" encoding="UTF-8"?><svg id="_лой_2" xmlns="http://www.w3.org/2000/svg" viewBox="0 0 18.14 17.05"><defs><style>.cls-1{fill:#fff;}</style></defs><g id="OBJECTS"><g><path class="cls-1" d="M17.32,7.58v-2.02c0-.94-.76-1.7-1.69-1.7h-1.11L5.48,.1c-.64-.27-1.37,.03-1.64,.67v.03l-1.24,3.07h-.91C.76,3.86,0,4.62,0,5.55H0V15.36c0,.94,.76,1.7,1.69,1.7H15.62c.94,0,1.7-.76,1.7-1.69h0v-2.03c.46-.02,.82-.39,.82-.85v-4.06c0-.46-.37-.83-.82-.85h0ZM4.6,1.1c.04-.11,.12-.2,.23-.24,.11-.04,.22-.04,.33,0l7.21,3h-2l-4.88-1.62c-.21-.07-.44,.03-.52,.24l-.54,1.39h-.94l1.11-2.76Zm3.17,2.76h-2.44l.27-.72,2.17,.72Zm8.73,11.5c0,.48-.39,.87-.87,.87H1.7c-.48,0-.87-.39-.87-.87V5.56c0-.48,.39-.87,.87-.87H15.62c.48,0,.87,.39,.87,.87v2.01h-3.71c-1.59,0-2.89,1.29-2.89,2.89s1.29,2.89,2.89,2.89h3.71v2.01Zm.82-2.87s-.02,.03-.03,.03h-4.5c-1.14,0-2.06-.92-2.06-2.06s.92-2.06,2.06-2.06l4.54,.03v4.06Z"/><path class="cls-1" d="M12.78,9.22c-.68,0-1.24,.55-1.24,1.24s.55,1.24,1.24,1.24,1.24-.55,1.24-1.24-.55-1.24-1.24-1.24Zm0,1.65c-.23,0-.41-.18-.41-.41s.18-.41,.41-.41,.41,.18,.41,.41-.18,.41-.41,.41ZM4.95,6.75c0,.23-.18,.41-.41,.41h-1.65c-.23,0-.41-.18-.41-.41s.18-.41,.41-.41h1.65c.23,0,.41,.18,.41,.41Zm1.65,1.65c0,.23-.18,.41-.41,.41H2.89c-.23,0-.41-.18-.41-.41s.18-.41,.41-.41h3.3c.23,0,.41,.18,.41,.41Z"/></g></g></svg>