<?xml version="1.0" encoding="UTF-8"?><svg id="_лой_2" xmlns="http://www.w3.org/2000/svg" viewBox="0 0 17.92 16.88"><defs><style>.cls-1{fill:#fff;}</style></defs><g id="OBJECTS"><g><path class="cls-1" d="M12.8,.24c-2.54,0-5.12,.62-5.12,1.8V6.49c-.7-.32-1.47-.49-2.24-.49-3,0-5.44,2.44-5.44,5.44,0,1,.27,1.98,.79,2.83,.09,.15,.29,.2,.44,.11,.15-.09,.2-.29,.11-.44h0c-.46-.75-.7-1.61-.7-2.49,0-2.65,2.15-4.8,4.8-4.8s4.8,2.15,4.8,4.8-2.15,4.8-4.8,4.8c-.91,0-1.81-.26-2.58-.75-.15-.09-.35-.04-.44,.11-.09,.15-.05,.33,.09,.43,.87,.56,1.89,.85,2.92,.85,1.07,0,2.07-.32,2.91-.85,.87,.53,2.55,.85,4.45,.85,2.54,0,5.12-.62,5.12-1.8V2.04c0-1.18-2.58-1.8-5.12-1.8Zm4.48,12.23c0,.39-1.58,1.16-4.48,1.16-.82,0-1.6-.07-2.31-.19,.24-.61,.37-1.25,.38-1.9,.61,.08,1.26,.12,1.92,.12,1.77,0,3.56-.3,4.48-.88v1.69ZM12.8,.88c2.9,0,4.48,.76,4.48,1.16s-1.58,1.16-4.48,1.16-4.48-.76-4.48-1.16,1.58-1.16,4.48-1.16Zm-4.48,5.95V2.95c.92,.58,2.71,.88,4.48,.88s3.56-.3,4.48-.88v1.69c0,.39-1.58,1.16-4.48,1.16-.91,0-1.79-.08-2.55-.23-.17-.04-.34,.08-.38,.25h0c-.03,.18,.08,.34,.25,.38h0c.8,.16,1.72,.24,2.67,.24,1.77,0,3.56-.3,4.48-.88v4.3c0,.39-1.58,1.16-4.48,1.16-.67,0-1.34-.05-1.95-.13-.07-.72-.29-1.43-.65-2.06,.77,.15,1.67,.23,2.59,.23s1.88-.08,2.67-.24c.17-.03,.29-.2,.25-.38h0c-.03-.17-.2-.29-.37-.25h0c-.76,.15-1.64,.23-2.55,.23-1.16,0-2.26-.13-3.12-.37-.38-.48-.84-.89-1.36-1.21h0Zm4.48,9.41c-1.77,0-3.13-.29-3.87-.63,.52-.44,.96-.97,1.28-1.57,.78,.15,1.66,.23,2.58,.23,1.77,0,3.56-.3,4.48-.88v1.69c0,.39-1.58,1.16-4.48,1.16h0Z"/><path class="cls-1" d="M9.65,5.77c.05-.17-.04-.35-.21-.4-.12-.04-.24-.08-.36-.13-.16-.07-.35,.01-.42,.18-.06,.16,.01,.35,.17,.41,.13,.05,.26,.1,.41,.15,.03,.01,.06,.02,.1,.02,.14,0,.26-.09,.3-.22h0Zm6.61,2.83s.06,0,.1-.02c.14-.04,.27-.09,.41-.15,.16-.07,.24-.26,.17-.42-.07-.16-.25-.24-.41-.17-.11,.05-.23,.09-.36,.13-.17,.05-.26,.23-.21,.4,.04,.13,.17,.22,.3,.22ZM1.87,14.65c-.12-.13-.32-.14-.45-.02h0c-.13,.12-.14,.32-.02,.45h0c.07,.08,.14,.16,.22,.23,.12,.12,.33,.12,.45,0h0c.12-.13,.12-.33,0-.45h0c-.07-.07-.13-.13-.19-.2Zm3.57-1.48c-.52,0-.96-.32-.96-.71,0-.18-.14-.32-.32-.32s-.32,.14-.32,.32c0,.65,.55,1.2,1.28,1.32v.53c0,.18,.14,.32,.32,.32s.32-.14,.32-.32v-.53c.73-.13,1.28-.67,1.28-1.32,0-.74-.72-1.35-1.6-1.35-.52,0-.96-.32-.96-.71s.44-.71,.96-.71,.96,.32,.96,.71c0,.18,.14,.32,.32,.32s.32-.14,.32-.32c0-.65-.55-1.2-1.28-1.32v-.53c0-.18-.14-.32-.32-.32s-.32,.14-.32,.32v.53c-.73,.13-1.28,.67-1.28,1.32,0,.74,.72,1.35,1.6,1.35,.52,0,.96,.32,.96,.71s-.44,.71-.96,.71ZM1.07,6.34c.18,0,.32-.14,.32-.32V3.33c0-.18-.14-.32-.32-.32s-.32,.14-.32,.32v2.69c0,.18,.14,.32,.32,.32h0Zm0-4c.18,0,.32-.14,.32-.32V.88c0-.18-.14-.32-.32-.32s-.32,.14-.32,.32v1.14c0,.18,.14,.32,.32,.32h0Zm2.67,2.72c.18,0,.32-.14,.32-.32V.32c0-.18-.14-.32-.32-.32s-.32,.14-.32,.32V4.74c0,.18,.14,.32,.32,.32h0Zm2.67,0c.18,0,.32-.14,.32-.32V2.53c0-.18-.14-.32-.32-.32s-.32,.14-.32,.32v2.21c0,.18,.14,.32,.32,.32h0Zm0-3.25c.18,0,.32-.14,.32-.32v-.18c0-.18-.14-.32-.32-.32s-.32,.14-.32,.32v.18c0,.18,.14,.32,.32,.32h0Z"/></g></g></svg>