<?xml version="1.0" encoding="UTF-8"?><svg id="_лой_2" xmlns="http://www.w3.org/2000/svg" viewBox="0 0 44.15 44"><defs><style>.cls-1{fill:#fff;}</style></defs><g id="OBJECTS"><g><path class="cls-1" d="M43.65,16.73l-7.09-5.9V6.06c0-.76-.62-1.38-1.38-1.38s-1.38,.62-1.38,1.38v2.46L24.72,.96c-1.53-1.28-3.76-1.28-5.3,0L.5,16.73c-.59,.49-.67,1.36-.18,1.94,.49,.59,1.36,.67,1.94,.18L21.19,3.08c.51-.43,1.25-.43,1.77,0l15.67,13.06v23.73c0,.76-.62,1.38-1.38,1.38h-6.9v-15.17c0-2.29-1.85-4.14-4.14-4.14h-8.28c-2.29,0-4.14,1.85-4.14,4.14v15.17H6.9c-.76,0-1.38-.62-1.38-1.38V23.3c0-.76-.62-1.38-1.38-1.38s-1.38,.62-1.38,1.38v16.55c0,2.29,1.85,4.14,4.14,4.14h30.35c2.29,0,4.14-1.85,4.14-4.14h0V18.44l.5,.41c.25,.21,.56,.32,.88,.32,.76,0,1.38-.61,1.38-1.38,0-.41-.18-.8-.5-1.06Zm-27.09,24.51v-15.17c0-.76,.62-1.38,1.38-1.38h8.28c.76,0,1.38,.62,1.38,1.38v15.17h-11.04Z"/><circle class="cls-1" cx="20.69" cy="32.96" r="1.38"/></g></g></svg>