<?xml version="1.0" encoding="UTF-8"?><svg id="_лой_2" xmlns="http://www.w3.org/2000/svg" xmlns:xlink="http://www.w3.org/1999/xlink" viewBox="0 0 27.07 27.07"><defs><style>.cls-1{fill:url(#linear-gradient-2);}.cls-2{fill:#fff;}.cls-3{opacity:.5;}.cls-4{fill:#202020;}.cls-5{fill:#f1f1f1;}.cls-6{fill:url(#linear-gradient);}</style><linearGradient id="linear-gradient" x1="13.53" y1="26.3" x2="13.53" y2=".77" gradientTransform="matrix(1, 0, 0, 1, 0, 0)" gradientUnits="userSpaceOnUse"><stop offset="0" stop-color="#bcc1c4"/><stop offset="1" stop-color="#eceff0"/></linearGradient><linearGradient id="linear-gradient-2" x1="13.53" y1="21.07" x2="13.53" y2="5.99" gradientTransform="matrix(1, 0, 0, 1, 0, 0)" gradientUnits="userSpaceOnUse"><stop offset=".21" stop-color="#343434"/><stop offset=".66" stop-color="#474747"/><stop offset="1" stop-color="#515151"/></linearGradient></defs><g id="OBJECTS"><g id="add_button"><circle class="cls-6" cx="13.53" cy="13.53" r="12.76"/><g class="cls-3"><path class="cls-5" d="M13.53,1.36c6.95,0,12.59,5.56,12.75,12.47,0-.1,.01-.2,.01-.29C26.3,6.49,20.58,.77,13.53,.77S.77,6.49,.77,13.53c0,.1,.01,.2,.01,.29C.95,6.92,6.59,1.36,13.53,1.36Z"/></g><path class="cls-4" d="M13.53,.77c7.05,0,12.76,5.71,12.76,12.76s-5.71,12.76-12.76,12.76S.77,20.58,.77,13.53,6.49,.77,13.53,.77m0-.77C6.07,0,0,6.07,0,13.53s6.07,13.53,13.53,13.53,13.53-6.07,13.53-13.53S21,0,13.53,0h0Z"/><path class="cls-1" d="M18.73,11.19h-2.85v-2.85c0-1.29-1.05-2.34-2.34-2.34h0c-1.29,0-2.34,1.05-2.34,2.34v2.85h-2.85c-1.29,0-2.34,1.05-2.34,2.34s1.05,2.34,2.34,2.34h2.85v2.85c0,1.29,1.05,2.34,2.34,2.34h0c1.29,0,2.34-1.05,2.34-2.34v-2.85h2.85c1.29,0,2.34-1.05,2.34-2.34s-1.05-2.34-2.34-2.34Z"/><path class="cls-2" d="M13.53,5.99c1.29,0,2.34,1.05,2.34,2.34v2.85h2.85c1.29,0,2.34,1.05,2.34,2.34s-1.05,2.34-2.34,2.34h-2.85v2.85c0,1.29-1.05,2.34-2.34,2.34h0c-1.29,0-2.34-1.05-2.34-2.34v-2.85h-2.85c-1.29,0-2.34-1.05-2.34-2.34s1.05-2.34,2.34-2.34h2.85v-2.85c0-1.29,1.05-2.34,2.34-2.34h0m0-.49c-1.57,0-2.84,1.27-2.84,2.84v2.36h-2.36c-1.57,0-2.84,1.27-2.84,2.84s1.27,2.84,2.84,2.84h2.36v2.36c0,1.57,1.27,2.84,2.84,2.84s2.84-1.27,2.84-2.84v-2.36h2.36c1.57,0,2.84-1.27,2.84-2.84s-1.27-2.84-2.84-2.84h-2.36v-2.36c0-1.57-1.27-2.84-2.84-2.84h0Z"/></g></g></svg>