<?xml version="1.0" encoding="UTF-8"?><svg id="_лой_2" xmlns="http://www.w3.org/2000/svg" viewBox="0 0 42.1 42.98"><defs><style>.cls-1{fill:#fff;fill-rule:evenodd;}</style></defs><g id="OBJECTS"><path class="cls-1" d="M3.74,11.75c0,.37-.3,.68-.68,.68s-.68-.3-.68-.68V6.87c0-.99,.41-1.9,1.06-2.55s1.56-1.06,2.55-1.06h4.87c.37,0,.68,.3,.68,.68s-.3,.68-.68,.68H5.99c-.62,0-1.18,.25-1.59,.66-.41,.41-.66,.97-.66,1.59v4.87ZM21.05,28.84c1.84,0,3.33,1.49,3.33,3.33s-1.49,3.33-3.33,3.33-3.33-1.49-3.33-3.33,1.49-3.33,3.33-3.33h0Zm0,7.55c2.96,0,5.46,1.95,6.29,4.64,.15,.47,.07,.94-.23,1.34-.29,.4-.72,.61-1.21,.61h-9.71c-.49,0-.92-.21-1.21-.61-.29-.4-.37-.87-.23-1.34,.83-2.69,3.33-4.64,6.29-4.64ZM6.37,14.42c1.84,0,3.33,1.49,3.33,3.33s-1.49,3.33-3.33,3.33-3.33-1.49-3.33-3.33,1.49-3.33,3.33-3.33Zm0,7.55c2.96,0,5.46,1.95,6.29,4.64,.15,.47,.07,.94-.23,1.34-.29,.4-.72,.61-1.21,.61H1.51c-.49,0-.92-.21-1.21-.61-.29-.4-.37-.87-.23-1.34,.83-2.69,3.33-4.64,6.29-4.64Zm29.36-7.55c1.84,0,3.33,1.49,3.33,3.33s-1.49,3.33-3.33,3.33-3.33-1.49-3.33-3.33,1.49-3.33,3.33-3.33Zm0,7.55c2.96,0,5.46,1.95,6.29,4.64,.15,.47,.07,.94-.23,1.34-.29,.4-.72,.61-1.21,.61h-9.71c-.49,0-.92-.21-1.21-.61-.29-.4-.37-.87-.23-1.34,.83-2.69,3.33-4.64,6.29-4.64ZM21.05,0C22.89,0,24.38,1.49,24.38,3.33s-1.49,3.33-3.33,3.33-3.33-1.49-3.33-3.33,1.49-3.33,3.33-3.33h0Zm0,7.55c2.96,0,5.46,1.95,6.29,4.64,.15,.47,.07,.94-.23,1.34-.29,.4-.72,.61-1.21,.61h-9.71c-.49,0-.92-.21-1.21-.61-.29-.4-.37-.87-.23-1.34,.83-2.69,3.33-4.64,6.29-4.64Zm10.18-2.93c-.37,0-.68-.3-.68-.68s.3-.68,.68-.68h4.87c.99,0,1.9,.41,2.55,1.06s1.06,1.56,1.06,2.55v4.87c0,.37-.3,.68-.68,.68s-.68-.3-.68-.68V6.87c0-.62-.25-1.18-.66-1.59-.41-.41-.97-.66-1.59-.66h-4.87Zm7.13,27.49c0-.37,.3-.68,.68-.68s.68,.3,.68,.68v4.87c0,.99-.41,1.9-1.06,2.55-.65,.65-1.56,1.06-2.55,1.06h-4.87c-.37,0-.68-.3-.68-.68s.3-.68,.68-.68h4.87c.62,0,1.18-.25,1.59-.66,.41-.41,.66-.97,.66-1.59v-4.87Zm-27.49,7.13c.37,0,.68,.3,.68,.68s-.3,.68-.68,.68H5.99c-.99,0-1.9-.41-2.55-1.06-.65-.65-1.06-1.56-1.06-2.55v-4.87c0-.37,.3-.68,.68-.68s.68,.3,.68,.68v4.87c0,.62,.25,1.18,.66,1.59,.41,.41,.97,.66,1.59,.66h4.87Z"/></g></svg>