<!-- Generator: Adobe Illustrator 26.3.1, SVG Export Plug-In . SVG Version: 6.00 Build 0)  -->
<svg version="1.1" id="Layer_2_1_" xmlns="http://www.w3.org/2000/svg" xmlns:xlink="http://www.w3.org/1999/xlink" x="0px" y="0px"
	 viewBox="0 0 147 35" width="168" height="40" style="enable-background:new 0 0 147 35;" xml:space="preserve">
<style type="text/css">
	.st0{enable-background:new    ;}
	.st1{fill:#FFFFFF;}
	.st2{fill:none;stroke:#FFFFFF;stroke-width:0.75;stroke-miterlimit:10;}
</style>
<g id="Layer_3">
	<g class="st0">
		<path class="st1" d="M45.4,12.2c0.3,0,0.4,0.1,0.4,0.4v1.8c0,0.3-0.1,0.4-0.4,0.4h-5.9c-0.5,0-0.9,0-1.2,0.1s-0.6,0.2-0.7,0.4
			c-0.2,0.2-0.3,0.4-0.4,0.7c-0.1,0.3-0.1,0.7-0.1,1.2v6.5c0,0.3-0.2,0.5-0.5,0.5h-2.2c-0.3,0-0.5-0.2-0.5-0.5v-7.1
			c0-0.8,0.1-1.5,0.3-2c0.2-0.6,0.5-1,0.9-1.4s0.9-0.6,1.6-0.8c0.7-0.2,1.5-0.3,2.5-0.3h6.2V12.2z"/>
		<path class="st1" d="M57.4,12.2c1,0,1.8,0.1,2.5,0.3s1.2,0.4,1.6,0.8s0.7,0.8,0.9,1.4c0.2,0.6,0.3,1.2,0.3,2v5.9
			c0,0.4,0,0.6-0.1,0.9c-0.1,0.2-0.1,0.4-0.3,0.5c-0.1,0.1-0.3,0.2-0.5,0.3c-0.2,0.1-0.5,0.1-0.8,0.1H50.5c-0.6,0-1.2-0.1-1.6-0.2
			c-0.4-0.1-0.8-0.3-1-0.6c-0.3-0.2-0.5-0.6-0.6-1s-0.2-0.9-0.2-1.4v-1.1c0-0.5,0.1-0.9,0.2-1.2c0.1-0.4,0.3-0.7,0.6-0.9
			c0.3-0.2,0.6-0.4,1-0.6c0.4-0.1,1-0.2,1.6-0.2h9v-0.4c0-0.4,0-0.7-0.1-0.9c-0.1-0.2-0.2-0.5-0.4-0.6c-0.2-0.2-0.4-0.3-0.7-0.3
			c-0.3-0.1-0.7-0.1-1.2-0.1h-9.2c-0.3,0-0.4-0.1-0.4-0.4v-1.8c0-0.3,0.1-0.4,0.4-0.4L57.4,12.2L57.4,12.2z M58.8,21.9
			c0.2,0,0.4-0.1,0.5-0.2s0.1-0.3,0.1-0.6v-1.9h-8.1c-0.5,0-0.8,0.1-1,0.3S50,20,50,20.3v0.5c0,0.4,0.1,0.7,0.3,0.9
			c0.2,0.2,0.5,0.3,1,0.3L58.8,21.9L58.8,21.9z"/>
		<path class="st1" d="M78.5,12.2c0.3,0,0.4,0.1,0.4,0.4v1.8c0,0.3-0.1,0.4-0.4,0.4H70c-0.5,0-0.9,0-1.2,0.1
			c-0.3,0.1-0.5,0.2-0.7,0.4s-0.3,0.4-0.4,0.7c-0.1,0.3-0.1,0.7-0.1,1.2v2c0,0.5,0,0.9,0.1,1.2c0.1,0.3,0.2,0.6,0.4,0.7
			c0.2,0.2,0.4,0.3,0.7,0.4c0.3,0.1,0.7,0.1,1.2,0.1h8.5c0.3,0,0.4,0.1,0.4,0.4v1.8c0,0.3-0.1,0.4-0.4,0.4h-8.8
			c-1,0-1.8-0.1-2.5-0.2c-0.7-0.2-1.2-0.4-1.6-0.8s-0.7-0.8-0.9-1.4c-0.2-0.6-0.3-1.2-0.3-2v-3.2c0-0.8,0.1-1.5,0.3-2
			c0.2-0.6,0.5-1,0.9-1.4s0.9-0.6,1.6-0.8s1.5-0.3,2.5-0.3h8.8V12.2z"/>
		<path class="st1" d="M83.6,12.2c0.3,0,0.5,0.2,0.5,0.5v6.4c0,0.5,0,0.9,0.1,1.2c0.1,0.3,0.2,0.6,0.3,0.7s0.4,0.3,0.7,0.4
			c0.3,0.1,0.7,0.1,1.2,0.1h5.7c0.5,0,0.9,0,1.2-0.1c0.3-0.1,0.6-0.2,0.7-0.4s0.3-0.4,0.4-0.7c0.1-0.3,0.1-0.7,0.1-1.2v-6.4
			c0-0.3,0.2-0.5,0.5-0.5h2.2c0.3,0,0.5,0.2,0.5,0.5v7.1c0,0.8-0.1,1.5-0.3,2c-0.2,0.6-0.5,1-0.9,1.4s-0.9,0.6-1.6,0.8
			c-0.7,0.2-1.5,0.2-2.5,0.2h-6.1c-1,0-1.8-0.1-2.5-0.2c-0.7-0.2-1.2-0.4-1.6-0.8s-0.7-0.8-0.9-1.4c-0.2-0.6-0.3-1.2-0.3-2v-7.1
			c0-0.3,0.2-0.5,0.5-0.5H83.6z"/>
		<path class="st1" d="M102.9,7.8c0.3,0,0.5,0.2,0.5,0.5v15.5c0,0.3-0.2,0.5-0.5,0.5h-2.2c-0.3,0-0.5-0.2-0.5-0.5V8.3
			c0-0.3,0.2-0.5,0.5-0.5C100.7,7.8,102.9,7.8,102.9,7.8z"/>
		<path class="st1" d="M108.8,12.2c0.3,0,0.5,0.2,0.5,0.5v6.4c0,0.5,0,0.9,0.1,1.2c0.1,0.3,0.2,0.6,0.3,0.7c0.2,0.2,0.4,0.3,0.7,0.4
			c0.3,0.1,0.7,0.1,1.2,0.1h5.7c0.5,0,0.9,0,1.2-0.1c0.3-0.1,0.6-0.2,0.7-0.4c0.2-0.2,0.3-0.4,0.4-0.7c0.1-0.3,0.1-0.7,0.1-1.2v-6.4
			c0-0.3,0.2-0.5,0.5-0.5h2.2c0.3,0,0.5,0.2,0.5,0.5v7.1c0,0.8-0.1,1.5-0.3,2c-0.2,0.6-0.5,1-0.9,1.4s-0.9,0.6-1.6,0.8
			c-0.7,0.2-1.5,0.2-2.5,0.2h-6.1c-1,0-1.8-0.1-2.5-0.2c-0.7-0.2-1.2-0.4-1.6-0.8s-0.7-0.8-0.9-1.4c-0.2-0.6-0.3-1.2-0.3-2v-7.1
			c0-0.3,0.2-0.5,0.5-0.5H108.8z"/>
		<path class="st1" d="M139.4,12.2c0.3,0,0.4,0.1,0.4,0.4v1.8c0,0.3-0.1,0.4-0.4,0.4h-9.9c-0.5,0-0.8,0.1-0.9,0.3
			c-0.2,0.2-0.3,0.4-0.3,0.7v0.3c0,0.3,0.1,0.5,0.3,0.7s0.5,0.3,0.9,0.3h7.4c1.2,0,2.1,0.3,2.6,0.8s0.8,1.2,0.8,2.2v1.1
			c0,0.5-0.1,0.9-0.2,1.3c-0.1,0.4-0.3,0.7-0.6,1s-0.6,0.5-1.1,0.6s-1,0.2-1.6,0.2h-11.3c-0.3,0-0.4-0.1-0.4-0.4v-1.7
			c0-0.3,0.1-0.4,0.4-0.4h10.4c0.5,0,0.8-0.1,1-0.2s0.3-0.4,0.3-0.8v-0.6c0-0.3-0.1-0.5-0.3-0.7s-0.5-0.2-1-0.2h-7.4
			c-1.2,0-2.1-0.3-2.6-0.8s-0.8-1.2-0.8-2.2v-1c0-0.5,0.1-0.9,0.2-1.2s0.3-0.7,0.6-1c0.3-0.3,0.6-0.5,1.1-0.6c0.4-0.1,1-0.2,1.6-0.2
			L139.4,12.2L139.4,12.2z"/>
	</g>
</g>
<g class="st0">
	<path class="st1" d="M16.5,3.4c3.3,0,6,1.1,8.2,3.3s3.3,4.9,3.3,8c0,3.2-1.1,5.8-3.3,8s-4.9,3.3-8,3.3c-3.2,0-5.9-1.1-8.1-3.3
		s-3.3-4.8-3.3-7.9c0-2.1,0.5-4,1.5-5.8s2.4-3.2,4.1-4.2S14.5,3.4,16.5,3.4z M16.6,5.5c-1.6,0-3.1,0.4-4.5,1.2s-2.5,2-3.3,3.4
		s-1.2,3-1.2,4.7c0,2.6,0.9,4.7,2.7,6.5s3.9,2.6,6.4,2.6c1.7,0,3.2-0.4,4.6-1.2s2.5-1.9,3.3-3.3s1.2-3,1.2-4.7s-0.4-3.3-1.2-4.6
		c-0.8-1.4-1.9-2.5-3.4-3.3C19.8,5.9,18.2,5.5,16.6,5.5z"/>
</g>
<g class="st0">
	<path class="st2" d="M16.5,3.4c3.3,0,6,1.1,8.2,3.3s3.3,4.9,3.3,8c0,3.2-1.1,5.8-3.3,8s-4.9,3.3-8,3.3c-3.2,0-5.9-1.1-8.1-3.3
		s-3.3-4.8-3.3-7.9c0-2.1,0.5-4,1.5-5.8s2.4-3.2,4.1-4.2S14.5,3.4,16.5,3.4z M16.6,5.5c-1.6,0-3.1,0.4-4.5,1.2s-2.5,2-3.3,3.4
		s-1.2,3-1.2,4.7c0,2.6,0.9,4.7,2.7,6.5s3.9,2.6,6.4,2.6c1.7,0,3.2-0.4,4.6-1.2s2.5-1.9,3.3-3.3s1.2-3,1.2-4.7s-0.4-3.3-1.2-4.6
		c-0.8-1.4-1.9-2.5-3.4-3.3C19.8,5.9,18.2,5.5,16.6,5.5z"/>
</g>
<g class="st0">
	<path class="st1" d="M16.5,10.4c3.3,0,6,1.1,8.2,3.3s3.3,4.9,3.3,8c0,3.2-1.1,5.8-3.3,8s-4.9,3.3-8,3.3c-3.2,0-5.9-1.1-8.1-3.3
		s-3.3-4.8-3.3-7.9c0-2.1,0.5-4,1.5-5.8c1-1.8,2.4-3.2,4.1-4.2S14.5,10.4,16.5,10.4z M16.6,12.5c-1.6,0-3.1,0.4-4.5,1.2
		s-2.5,2-3.3,3.4s-1.2,3-1.2,4.7c0,2.6,0.9,4.7,2.7,6.5s3.9,2.6,6.4,2.6c1.7,0,3.2-0.4,4.6-1.2s2.5-1.9,3.3-3.3s1.2-3,1.2-4.7
		c0-1.7-0.4-3.3-1.2-4.6c-0.8-1.4-1.9-2.5-3.4-3.3C19.8,12.9,18.2,12.5,16.6,12.5z"/>
</g>
<g class="st0">
	<path class="st2" d="M16.5,10.4c3.3,0,6,1.1,8.2,3.3s3.3,4.9,3.3,8c0,3.2-1.1,5.8-3.3,8s-4.9,3.3-8,3.3c-3.2,0-5.9-1.1-8.1-3.3
		s-3.3-4.8-3.3-7.9c0-2.1,0.5-4,1.5-5.8c1-1.8,2.4-3.2,4.1-4.2S14.5,10.4,16.5,10.4z M16.6,12.5c-1.6,0-3.1,0.4-4.5,1.2
		s-2.5,2-3.3,3.4s-1.2,3-1.2,4.7c0,2.6,0.9,4.7,2.7,6.5s3.9,2.6,6.4,2.6c1.7,0,3.2-0.4,4.6-1.2s2.5-1.9,3.3-3.3s1.2-3,1.2-4.7
		c0-1.7-0.4-3.3-1.2-4.6c-0.8-1.4-1.9-2.5-3.4-3.3C19.8,12.9,18.2,12.5,16.6,12.5z"/>
</g>
</svg>
